<svg version="1.1" id="Layer_1" xmlns="http://www.w3.org/2000/svg" xmlns:xlink="http://www.w3.org/1999/xlink" x="0px" y="0px"
	 width="100%" viewBox="0 0 512 512" enable-background="new 0 0 512 512" xml:space="preserve">
<path fill="#000000" opacity="1.000000" stroke="none" 
	d="
M1.000001,387.000000 
	C1.000000,316.645782 1.000000,246.291550 1.381639,175.468750 
	C2.652145,175.313675 3.629500,175.482025 4.416917,175.961990 
	C23.358477,187.507660 42.272476,199.098526 61.206619,210.656387 
	C81.644592,223.132248 102.095909,235.586243 122.545181,248.043564 
	C141.207611,259.412384 159.871658,270.778595 178.541321,282.135498 
	C199.003189,294.582642 219.591949,306.826813 239.889252,319.536591 
	C250.502457,326.182373 261.281006,327.050934 271.834564,320.895233 
	C293.766968,308.102417 315.367126,294.735931 337.015472,281.461182 
	C365.935822,263.727264 394.736786,245.798706 423.655029,228.061310 
	C450.775421,211.426666 477.966125,194.906281 505.177399,178.420654 
	C507.590118,176.958923 510.383453,176.125320 513.000000,175.000000 
	C513.000000,244.020889 513.000000,313.041779 512.615051,382.666931 
	C512.063110,384.735931 512.078064,386.249329 511.701508,387.658081 
	C507.100708,404.871338 498.535339,419.540619 484.096039,430.413239 
	C471.229553,440.101532 456.883942,445.942871 440.666931,445.953979 
	C317.723419,446.038147 194.779816,446.010040 71.836258,445.952118 
	C68.100739,445.950348 64.247459,445.702789 60.648903,444.785736 
	C32.242958,437.546814 12.761200,420.521393 3.641312,392.265808 
	C3.045151,390.418762 1.893345,388.751099 1.000001,387.000000 
z"/>
<path fill="#FFFFFF" opacity="1.000000" stroke="none" 
	d="
M513.000000,174.531342 
	C510.383453,176.125320 507.590118,176.958923 505.177399,178.420654 
	C477.966125,194.906281 450.775421,211.426666 423.655029,228.061310 
	C394.736786,245.798706 365.935822,263.727264 337.015472,281.461182 
	C315.367126,294.735931 293.766968,308.102417 271.834564,320.895233 
	C261.281006,327.050934 250.502457,326.182373 239.889252,319.536591 
	C219.591949,306.826813 199.003189,294.582642 178.541321,282.135498 
	C159.871658,270.778595 141.207611,259.412384 122.545181,248.043564 
	C102.095909,235.586243 81.644592,223.132248 61.206619,210.656387 
	C42.272476,199.098526 23.358477,187.507660 4.416917,175.961990 
	C3.629500,175.482025 2.652145,175.313675 1.381639,175.000092 
	C1.000000,117.029503 1.000000,59.058998 1.000000,1.044249 
	C171.550369,1.044249 342.100739,1.044249 513.000000,1.044249 
	C513.000000,58.687092 513.000000,116.374886 513.000000,174.531342 
M5.955069,116.465225 
	C4.977340,119.334656 3.628016,122.148254 3.184787,125.098000 
	C2.975469,126.491043 4.089869,128.782318 5.312210,129.574234 
	C11.782390,133.766022 18.497013,137.578476 25.091080,141.581436 
	C42.958759,152.428116 60.816650,163.290970 78.662956,174.172775 
	C98.292374,186.141846 117.909378,198.131302 137.522949,210.126358 
	C158.242523,222.797821 178.955521,235.480072 199.664246,248.169296 
	C218.043182,259.430939 236.387680,270.749390 254.844910,281.881073 
	C255.993240,282.573669 258.343231,282.434418 259.544525,281.707642 
	C285.414459,266.056610 311.232910,250.319687 336.993378,234.488861 
	C364.267212,217.728073 391.426758,200.781082 418.716492,184.046371 
	C447.498260,166.396744 476.323547,148.816513 505.246918,131.400436 
	C512.305603,127.150101 511.855316,128.621826 509.207947,119.659378 
	C505.151062,105.924820 496.931854,94.910133 486.183228,85.720863 
	C473.659119,75.013680 459.187531,68.152122 442.641693,68.122078 
	C319.003265,67.897545 195.364273,67.989601 71.725479,68.049942 
	C67.992676,68.051765 64.145691,68.343697 60.545982,69.261452 
	C34.840061,75.815254 16.496334,91.140976 5.955069,116.465225 
z"/>
<path fill="#FFFFFF" opacity="1.000000" stroke="none" 
	d="
M1.000001,387.468658 
	C1.893345,388.751099 3.045151,390.418762 3.641312,392.265808 
	C12.761200,420.521393 32.242958,437.546814 60.648903,444.785736 
	C64.247459,445.702789 68.100739,445.950348 71.836258,445.952118 
	C194.779816,446.010040 317.723419,446.038147 440.666931,445.953979 
	C456.883942,445.942871 471.229553,440.101532 484.096039,430.413239 
	C498.535339,419.540619 507.100708,404.871338 511.701508,387.658081 
	C512.078064,386.249329 512.063110,384.735931 512.615051,383.135559 
	C513.000000,426.308624 513.000000,469.617279 513.000000,512.962952 
	C342.455322,512.962952 171.910660,512.962952 1.000000,512.962952 
	C1.000000,471.313141 1.000000,429.625244 1.000001,387.468658 
z"/>
<path fill="#000000" opacity="1.000000" stroke="none" 
	d="
M5.993434,116.063644 
	C16.496334,91.140976 34.840061,75.815254 60.545982,69.261452 
	C64.145691,68.343697 67.992676,68.051765 71.725479,68.049942 
	C195.364273,67.989601 319.003265,67.897545 442.641693,68.122078 
	C459.187531,68.152122 473.659119,75.013680 486.183228,85.720863 
	C496.931854,94.910133 505.151062,105.924820 509.207947,119.659378 
	C511.855316,128.621826 512.305603,127.150101 505.246918,131.400436 
	C476.323547,148.816513 447.498260,166.396744 418.716492,184.046371 
	C391.426758,200.781082 364.267212,217.728073 336.993378,234.488861 
	C311.232910,250.319687 285.414459,266.056610 259.544525,281.707642 
	C258.343231,282.434418 255.993240,282.573669 254.844910,281.881073 
	C236.387680,270.749390 218.043182,259.430939 199.664246,248.169296 
	C178.955521,235.480072 158.242523,222.797821 137.522949,210.126358 
	C117.909378,198.131302 98.292374,186.141846 78.662956,174.172775 
	C60.816650,163.290970 42.958759,152.428116 25.091080,141.581436 
	C18.497013,137.578476 11.782390,133.766022 5.312210,129.574234 
	C4.089869,128.782318 2.975469,126.491043 3.184787,125.098000 
	C3.628016,122.148254 4.977340,119.334656 5.993434,116.063644 
z"/>
</svg>